<?xml version="1.0" standalone="no"?>
<!DOCTYPE svg PUBLIC "-//W3C//DTD SVG 20010904//EN"
 "http://www.w3.org/TR/2001/REC-SVG-20010904/DTD/svg10.dtd">
<svg version="1.0" xmlns="http://www.w3.org/2000/svg"
 width="512.000000pt" height="512.000000pt" viewBox="0 0 512.000000 512.000000"
 preserveAspectRatio="xMidYMid meet">
<metadata>
Created by potrace 1.14, written by Peter Selinger 2001-2017
</metadata>
<g transform="translate(0.000000,512.000000) scale(0.100000,-0.100000)"
fill="#000000" stroke="none">
<path d="M2538 5108 c-9 -7 -35 -52 -58 -100 -43 -91 -47 -94 -120 -103 -127
-15 -147 -21 -153 -47 -5 -17 11 -38 74 -101 69 -68 79 -83 75 -106 -3 -14
-10 -53 -16 -86 -5 -33 -12 -70 -14 -82 -3 -13 0 -25 6 -29 10 -6 -12 -20
-192 -116 -52 -28 -117 -63 -145 -78 -27 -15 -90 -49 -140 -75 -49 -26 -103
-56 -120 -65 -16 -10 -70 -39 -120 -65 -79 -42 -167 -89 -410 -220 -33 -18
-94 -50 -135 -72 -81 -44 -287 -155 -385 -208 -59 -32 -64 -33 -184 -34 -165
0 -161 3 -161 -152 0 -110 1 -119 22 -133 13 -10 44 -16 74 -16 47 0 52 -2 58
-25 25 -99 123 -223 214 -269 95 -48 237 -67 322 -41 59 17 154 72 195 113
l45 44 0 -326 c0 -179 -2 -326 -4 -326 -2 0 -13 26 -25 58 -29 78 -88 144
-159 178 -54 26 -66 28 -213 31 -194 3 -193 4 -155 -100 14 -39 26 -77 26 -84
0 -8 -25 -12 -82 -11 -110 1 -117 -7 -113 -134 1 -51 3 -98 4 -104 1 -15 42
-30 116 -44 83 -15 145 -31 146 -39 0 -3 1 -230 2 -503 1 -273 5 -500 9 -504
10 -9 207 -9 216 1 4 4 8 68 9 143 3 146 11 182 49 207 24 15 135 27 161 18
10 -4 13 -99 13 -429 0 -233 -1 -424 -2 -425 -2 0 -174 -3 -383 -5 -371 -4
-380 -5 -397 -25 -16 -19 -18 -45 -18 -219 l0 -198 -132 0 c-166 0 -154 1
-172 -18 -24 -24 -22 -145 2 -167 17 -16 198 -17 2394 -17 2288 0 2376 1 2391
18 23 25 24 144 1 166 -17 17 -15 17 -189 19 l-120 2 0 203 c0 189 -2 205 -20
218 -10 8 -34 14 -52 14 -33 0 -33 0 -33 48 -1 26 -1 167 -1 313 0 301 -4 321
-75 369 -36 24 -44 25 -211 26 -96 1 -177 5 -180 8 -8 8 -8 1474 0 1482 3 4
19 2 35 -4 45 -15 170 -7 236 17 138 49 239 159 282 309 2 7 23 12 56 12 87 1
93 10 92 151 0 95 -4 123 -16 135 -13 13 -40 16 -139 15 l-122 -1 -106 57
c-58 31 -137 73 -174 95 -38 21 -70 38 -72 38 -2 0 -73 37 -157 83 -84 46
-198 107 -253 137 -55 29 -113 60 -130 70 -16 9 -70 39 -120 65 -49 26 -112
60 -140 75 -27 15 -95 51 -150 80 -55 29 -104 56 -110 60 -5 4 -64 36 -130 70
-168 89 -175 93 -165 110 5 8 7 17 5 20 -2 3 -6 23 -9 45 -9 61 -18 118 -22
138 -2 12 25 45 76 95 63 62 78 82 74 100 -4 12 -14 23 -23 26 -17 5 -151 26
-186 29 -15 1 -34 29 -70 102 -51 101 -67 116 -97 93z m-373 -3228 l0 -1240
-355 4 c-195 2 -363 4 -372 5 -17 1 -18 28 -18 429 l0 428 58 -2 c31 -1 69 -2
85 -3 16 0 41 -14 60 -32 l32 -31 1 -146 c0 -138 1 -148 21 -157 22 -11 185
-11 203 0 7 4 10 126 10 363 0 351 -1 358 -23 396 -12 22 -38 49 -57 60 -36
21 -33 21 -347 25 l-43 1 0 515 0 514 23 -23 c96 -96 289 -138 429 -93 100 32
203 116 250 203 15 28 26 40 32 34 7 -7 10 -459 11 -1250z m839 1201 c59 -96
146 -160 261 -192 63 -17 160 -19 220 -4 103 26 222 116 272 205 15 27 31 46
35 44 5 -3 14 -20 22 -37 7 -18 33 -54 57 -81 l44 -50 1 -580 1 -580 -33 72
c-37 82 -90 138 -160 172 -44 21 -66 24 -200 26 -199 4 -199 4 -161 -103 15
-43 27 -81 27 -85 0 -3 -37 -6 -82 -5 -109 1 -118 -10 -118 -137 1 -61 5 -97
14 -109 10 -13 51 -26 131 -43 65 -13 119 -24 121 -24 2 0 4 -209 4 -464 l0
-465 -252 2 -253 2 -3 1225 c-2 1096 -1 1270 12 1270 2 0 20 -27 40 -59z m907
-2160 c3 -1 6 -62 6 -136 0 -117 -2 -135 -16 -136 -168 -5 -200 -3 -204 11 -3
13 -2 113 2 177 1 30 55 81 89 85 23 2 104 2 123 -1z m327 -10 c50 -21 64 -53
66 -150 3 -128 12 -119 -120 -120 -100 0 -114 2 -115 17 -1 19 -1 215 0 247 1
18 8 20 70 19 38 0 82 -6 99 -13z"/>
<path d="M3516 4915 c-33 -18 -64 -42 -70 -52 -12 -22 -15 -130 -4 -164 5 -16
29 -37 63 -56 81 -47 89 -48 149 -17 97 49 99 52 101 135 2 41 -1 84 -6 95 -8
24 -126 94 -156 94 -10 0 -45 -16 -77 -35z"/>
<path d="M1361 4843 c-92 -48 -101 -61 -101 -148 0 -67 3 -79 24 -100 27 -27
118 -75 142 -75 21 0 115 54 138 79 22 24 26 162 5 187 -13 16 -130 84 -145
84 -6 0 -34 -12 -63 -27z"/>
<path d="M4221 4352 c-93 -50 -101 -62 -101 -151 0 -46 5 -84 13 -93 18 -24
129 -88 151 -88 20 0 119 51 149 78 13 12 17 32 17 97 0 50 -5 87 -12 97 -16
20 -110 76 -141 83 -14 3 -43 -5 -76 -23z"/>
<path d="M693 4294 c-96 -50 -104 -60 -107 -139 -1 -39 2 -82 6 -96 10 -28
120 -99 156 -99 23 0 127 52 151 76 10 9 16 40 17 93 3 97 -7 114 -98 160 -35
17 -66 31 -69 31 -3 0 -28 -12 -56 -26z"/>
</g>
</svg>
